<?xml version="1.0" encoding="UTF-8"?>
<svg id="Layer_1" xmlns="http://www.w3.org/2000/svg" version="1.1" viewBox="0 0 606.5 839.3">
  <!-- Generator: Adobe Illustrator 30.5.1, SVG Export Plug-In . SVG Version: 2.1.4 Build 3)  -->
  <defs>
    <style>
      .st0 {
        fill: #17602d;
      }

      .st1 {
        fill: #59ab4c;
      }

      .st2 {
        fill: #fff;
      }

      .st3 {
        fill: #5a9a66;
      }

      .st4 {
        fill: #278033;
      }

      .st5 {
        fill: #4da248;
      }

      .st6 {
        fill: #53ac36;
      }

      .st7 {
        fill: #45a038;
      }

      .st8 {
        fill: #4c8760;
      }
    </style>
  </defs>
  <g id="ribbon">
    <path id="Path_1" class="st7" d="M390.5,29.3c11.5,10.9,18.2,24,24.8,38.1,2.4,5.2,5,10.2,7.7,15.2,5.1,9.4,9.7,19.1,14.3,28.8,3.1,6.6,6.4,13.1,9.7,19.6,2.9,5.8,5.8,11.6,8.7,17.4,2.2,4.5,4.5,9,6.7,13.4,1.6,3.2,3.2,6.4,4.8,9.6.6,1.2,1.2,2.5,1.9,3.7,13.2,26,15.1,56.6,10.1,85.1l-.5,2.7c-9.3,53.8-35.4,108.6-67.3,152.8l-1.7,2.4-1.5,2.1c-1.3,2.8-.8,4.1,0,7.1.7,1.4,1.6,2.7,2.6,3.9l1.7,2.2,1.8,2.4,1.9,2.5c2,2.7,4,5.3,6.1,8l2.1,2.7c2.7,3.6,5.5,7.2,8.2,10.7,4.3,5.7,8.6,11.4,12.8,17.1,3.4,4.6,6.8,9.2,10.3,13.7,4.7,6.1,9.3,12.3,13.9,18.5,4.8,6.5,9.6,12.9,14.5,19.3,4.9,6.4,9.7,12.8,14.5,19.3,6.4,8.8,13,17.5,19.7,26.1,8.2,10.5,16.1,21.2,24,31.9,7.4,10.1,14.9,20.1,22.6,30,3.8,5,7.6,10,11.3,15,1.4,1.8,2.7,3.6,4.1,5.4,13.2,17.5,21.9,29.6,26.2,36.2-5.9,9-12.1,17.9-18.3,26.7-2.9,4.1-5.7,8.1-8.6,12.2l-1.8,2.5c-3.5,5-6.9,9.9-10.3,14.9-5,7.3-10.1,14.5-15.5,21.6-4.4,5.9-8.6,11.9-12.7,18-3.5,5.1-7,10.1-10.7,15-3.6,4.9-7,9.9-10.2,15.1-3.3,5.1-6.9,9.9-10.5,14.7-1.5,2-3,4.1-4.4,6.2-4.1-1.5-5.9-4.2-8.5-7.6l-1.3-1.7c-.9-1.2-1.8-2.5-2.8-3.7-1.4-1.9-2.9-3.9-4.3-5.8-2-2.7-4-5.4-6-8.1-2-2.7-4-5.3-6-8-6-8-11.9-16-17.8-24-4.2-5.7-8.5-11.4-12.7-17.1-3.8-5.1-7.5-10.2-11.2-15.3-4.2-5.8-8.5-11.5-13.1-17-2.9-3.6-5.6-7.4-8.2-11.2-3.2-4.5-6.4-8.9-9.7-13.2-4.5-6-9-12-13.4-18-4-5.5-8.1-10.9-12.2-16.3-3.6-4.6-7-9.3-10.4-14-2.6-3.6-5.4-7.2-8.1-10.8-3.7-4.9-7.4-9.9-10.9-14.9-4.1-5.8-8.4-11.5-12.7-17.2-4.3-5.7-8.5-11.3-12.6-17.1l-1.2-1.6c-1.8-2.5-3.6-5.1-5.4-7.6s-3.6-5-5.3-7.5l-1.7-2.4-1.6-2.2-1.4-2-1.3-1.4h-2c-1.3,1.4-2.5,3-3.5,4.6l-2.2,3.1-1.2,1.6c-1.9,2.7-3.8,5.4-5.8,8.2l-1.2,1.7c-5.4,7.6-10.9,15-16.5,22.5-2.4,3.2-4.8,6.5-7.2,9.8-13.1,17.9-26.3,35.7-39.8,53.3-4.7,6.1-9.3,12.2-13.8,18.5-4.1,5.6-8.2,11.1-12.4,16.6-2.5,3.4-5,6.7-7.6,10.1-3,4-6,7.9-8.9,11.9-5.4,7.2-10.8,14.5-16.2,21.8-4,5.4-8,10.8-12.1,16.1-3.4,4.4-6.7,8.8-9.9,13.2-5.1,7.1-10.4,14-15.7,20.9s-10.5,13.9-15.5,20.9c-2.8,4-6,7.7-9.6,11.1-6.5-8.6-12.9-17.2-19-26.2-2.8-4.2-5.7-8.3-8.7-12.4-4.5-6.3-8.9-12.6-13.3-18.9-6.3-9.1-12.7-18.1-19.2-27.1-5.7-7.9-11.3-16-16.8-24-3.9-5.7-7.8-11.2-11.9-16.8-1.6-2.2-3.2-4.4-4.7-6.6-.9-1.3-1.9-2.6-2.8-3.9-1.2-1.6-2.4-3.3-3.6-4.9l-2-2.7c-.7-1.7-.8-3.3-.3-4.9,1.1-2.4,2.5-4.6,4.1-6.7l1.7-2.3,1.8-2.4,1.9-2.5c1.9-2.6,3.8-5.1,5.7-7.7l3.3-4.4c2.5-3.3,4.9-6.6,7.4-9.8,2-2.6,4-5.3,6-8,3-4,6-8,9.1-11.9,4.1-5.3,8-10.6,11.9-16.1,4-5.6,8.1-11,12.4-16.3,2.4-3,4.7-6.2,7-9.3,4.6-6.3,9.2-12.5,13.9-18.6,8.5-11.1,16.8-22.2,24.9-33.4,4.4-6.3,9.2-12.4,13.9-18.4,4-5.1,7.8-10.3,11.6-15.6,2.9-4.1,5.9-8,9-11.9,4.1-5.2,8-10.5,11.8-15.9,4-5.8,8.3-11.4,12.8-16.8,2.8-3.4,5.3-6.9,7.8-10.4,2.7-3.8,5.6-7.5,8.4-11.3l1.5-2,1.5-1.9,1.4-1.9c1.1-1.4,2.1-2.7,3.3-4.1l1.7-2.1,1.6-1.9c.8-1.3.9-2.8.2-4.4-1.3-2.4-2.6-4.7-4.1-7l-1.7-2.6-1.8-2.8c-12.3-19.1-23.6-38.9-33.8-59.2l-1.2-2.4c-11.2-22.2-20.4-46.3-25.9-70.6l-.8-3.3c-3-13.1-4.5-26.4-4.5-39.8v-7.7c-.2-23.9,7.3-43.4,17.8-64.6.7-1.5,1.5-3,2.2-4.5,4.4-9.1,8.9-18.1,13.5-27.1,1.6-3.2,3.2-6.3,4.8-9.5l1.9-3.7.9-1.9,19.9-39.8.9-1.9c.6-1.2,1.2-2.5,1.8-3.7,1.6-3.3,3.3-6.6,4.9-9.9l1.1-2.2c.7-1.4,1.3-2.7,2-4.1,3-6.2,6.6-12.1,10.8-17.5h2l.8-1.9c1.5-2.5,2.6-3.1,5.2-4.1v-2c46.4-39.2,129.8-38.4,176.5,0l-.6.2ZM229,130.2l-2.6,1.1c-2.7,1.1-5.3,2.3-8,3.5l-2.5,1.1-2.3,1.1-2,.9c-1.1.8-1.9,2-2.4,3.5-.2,3.6.8,5.6,2.4,8.8l1.7,3.6c.6,1.3,1.3,2.5,1.9,3.8l1.9,3.9c5.7,11.6,12.1,22.7,18.9,33.6l2.9,4.8c16.3,26.5,35.2,51.3,53.8,76.2l1.5,2c2,2.9,4.3,5.6,6.8,8h2c1.3-1.4,2.5-2.8,3.6-4.4l2.2-2.8,2.2-2.8c1.3-1.6,2.5-3.1,3.8-4.7,7-8.8,13.6-17.8,19.8-27.2,1.6-2.3,3.3-4.4,5.1-6.6,5.3-6.5,9.6-13.6,14.1-20.6,1.7-2.7,3.5-5.3,5.2-7.9,10.5-15.7,19.9-32.1,28.1-49.1,1-2,2-4.1,3-6.1.7-1.4,1.3-2.7,2-4.1l.9-1.9c1.2-2.2,1.9-4.6,2.1-7.1-1.8-3-4.7-4.1-7.8-5.6l-2.1-1c-16.4-7.7-33.4-12.7-51.2-16.2l-3.4-.7c-33.8-6.2-70.3-.7-101.6,12.7v.2Z"/>
    <path id="Path_2" class="st6" d="M402,431.2h2c1,1.1,2,2.4,2.8,3.6l1.6,2.3,1.7,2.4,1.7,2.4c2.8,4,4.2,6.7,4.2,8.2h2v3l3,1c.5,1.3.8,2.6,1,4h2c1.4,1.3,2.7,2.6,4,4l3-1,1-2,1.1,1.5c6.4,8.7,12.8,17.4,19.4,26,4.6,5.9,9.1,11.9,13.5,18,6.1,8.3,12.3,16.5,18.6,24.7,4.6,6,9.1,12.1,13.6,18.2,6.4,8.8,13,17.5,19.7,26.1,8.2,10.5,16.1,21.2,24,31.9,7.4,10.1,14.9,20.1,22.6,30,3.8,5,7.6,10,11.3,15,1.4,1.8,2.7,3.6,4.1,5.4,13.2,17.5,21.9,29.6,26.2,36.2-5.9,9-12.1,17.9-18.3,26.7-2.9,4.1-5.7,8.1-8.6,12.2l-1.8,2.5c-3.5,5-6.9,9.9-10.3,14.9-5,7.3-10.1,14.5-15.5,21.6-4.4,5.9-8.6,11.9-12.7,18-3.5,5.1-7,10.1-10.7,15-3.6,4.9-7,9.9-10.2,15.1-3.3,5.1-6.9,9.9-10.5,14.7-1.5,2-3,4.1-4.4,6.2-4.1-1.5-5.9-4.2-8.5-7.6l-1.3-1.7c-.9-1.2-1.8-2.5-2.8-3.7-1.4-1.9-2.9-3.9-4.3-5.8-2-2.7-4-5.4-6-8.1-2-2.7-4-5.3-6-8-6-8-11.9-16-17.8-24-4.2-5.7-8.5-11.4-12.7-17.1-3.8-5.1-7.5-10.2-11.2-15.3-4.2-5.8-8.5-11.5-13.1-17-2.9-3.6-5.6-7.4-8.2-11.2-3.2-4.5-6.4-8.9-9.7-13.2-4.5-6-9-12-13.4-18-4-5.5-8.1-10.9-12.3-16.3-3.6-4.6-7-9.3-10.4-14-2.6-3.6-5.4-7.2-8.1-10.8-3.7-4.9-7.4-9.9-10.9-14.9-5.4-7.6-11-15.1-16.7-22.6l-1.8-2.4c-1.2-1.5-2.3-3-3.5-4.5l-1.7-2.1-1.5-1.8c-.7-1.2-1.1-3.1-1.1-5.8-1-1.4-2-2.7-3-4v-2h-2c-1.8-2.2-3.4-4.4-5.1-6.8l-1.4-1.9c-2.7-3.8-4.2-6.9-4.5-9.3,1.2-1.4,2.6-2.8,4-4,1-1.7,2-3.3,3-5,1.6-2.3,3.3-4.5,4.9-6.8,4.2-5.6,8.2-11.3,12.2-17,3.2-4.6,6.5-9.2,9.8-13.8,6.7-9.2,13.2-18.5,19.8-27.9,6.7-9.5,11.3-15.7,13.9-18.8,1.7-2.1,3.2-4.4,4.4-6.8,4.7-8.9,10.8-17.1,16.9-25.1l3-4.5c2.7-4.1,4.7-7,6-8.5v.3Z"/>
    <path id="Path_3" class="st4" d="M190,71.2c.8,3.2,1.1,6.6.9,9.9-1.6,52.6,31.4,108.7,62.8,149.1,2.9,3.8,5.6,7.6,8.3,11.5,3.6,5.2,7.3,10.3,11.1,15.4l2.1,2.8c1.2,1.6,2.8,3,4.8,4.2,1,1.7,2,3.4,2.9,5.1,1.8,3,3.8,5.8,6,8.5l1.3,1.7c2.7,3.5,5.6,6.7,8.8,9.7v-3l3,1c-.6,4-2.6,6.3-5.1,9.4-.9,1.2-1.8,2.3-2.7,3.5l-1.5,1.9c-3.3,4.2-6.5,8.5-9.7,12.7l-2.1,2.8c-4.1,5.4-8.3,10.9-12.3,16.4-3.5,4.6-7,9.2-10.5,13.8-5.7,7.5-11.4,15-17,22.5-2.4,3.2-4.7,6.3-7.1,9.5-3.9,5.3-7.9,10.5-11.8,15.8-3.1,4.2-6.2,8.3-9.4,12.5-1.6,2.1-3.2,4.3-4.8,6.4l-2.7,3.6-2.3,3.1-1.9,2.1h-3c-1.8-2.4-3.4-4.7-4.9-7.2l-1.5-2.3c-1.6-2.5-3.1-5-4.6-7.4l-1.5-2.4c-3.6-5.8-7-11.7-10.5-17.6l-1.5-2.5c-19.3-32.7-36.2-68.2-44.6-105.4l-.8-3.3c-3-13.1-4.5-26.4-4.5-39.8v-7.7c-.2-23.9,7.3-43.4,17.8-64.6.7-1.5,1.5-3,2.2-4.5,3.7-7.5,7.4-15.1,11.2-22.6,2.7-5.3,5.3-10.7,8-16.1,2.3-4.6,4.6-9.3,6.9-13.9,1.2-2.4,2.4-4.8,3.5-7.2,1.7-3.5,3.4-7,5.2-10.5l1.6-3.3,1.5-3,1.3-2.6c1.6-2.4,2.8-3,5.4-4.1.9-1.2,1.5-2.6,2-4h-.3Z"/>
    <path id="Path_4" class="st0" d="M301.2,6.9h2.3c22.3,0,43.2,3.8,63.5,13.3l2.7,1.3c17.3,8.7,29.6,23,36.5,41,7.9,25,1.3,54.3-9.3,77.7-4.2-.6-7.2-2.1-10.9-4.1-16.4-8.5-34-13.4-52.1-16.9l-3.4-.7c-39-7.2-79.5,1.4-114.6,18.9l-2.3,1.1-2,1c-1.2.5-2.8.7-4.8.7-4.2-10.4-7.6-21.1-10-32l-.7-2.9c-4.2-20.1-2-40.4,8.7-58.1,14.3-20.7,38.4-32.8,62.7-37.6,11-1.9,22.3-2.9,33.5-2.7h.2Z"/>
    <path id="Path_20" class="st1" d="M431,459.2c4.2,3.8,7.3,8.4,10.5,12.9,1.1,1.6,2.3,3.2,3.4,4.8l1.6,2.3c1.2,1.7,2.5,3.3,3.8,4.9,3,3.9,2.7,7.4,2.7,12.1-4.3-4.2-8.2-8.7-11.8-13.5l-1.8-2.3-1.7-2.2-1.5-2c-1.2-2.2-2-4.6-2.2-7l-4-1v-2h-2l1-5h2v-2h0Z"/>
    <path id="Path_75" class="st5" d="M431,459.2c1.2.8,2.2,1.8,3,3-.1,2-.5,4-1,6h-3v-2h-2l1-5h2v-2Z"/>
    <path id="Path_101" class="st8" d="M160,355.2c3.3,2.7,4.6,6,6,10-.2,1.4-.5,2.7-1,4-.8-1.6-1.7-3.2-2.5-4.8l-1.4-2.7c-.7-1.7-1.1-3.9-1.1-6.6h0Z"/>
    <path id="Path_136" class="st3" d="M245,645.2l1,3c-1.2,2.1-2.5,4.1-4,6-.6-1.2-1-2.6-1-4,1.2-1.8,2.5-3.5,4-5Z"/>
  </g>
  <g id="Layer_2">
    <path id="a" class="st2" d="M302.3,25l8.4,26.1-22.1-16.1h27.4l-22.2,16.1,8.5-26h0Z"/>
    <path id="Path_719" class="st2" d="M258.6,34.2l2.8,27.3,13.7-23.7-25.1,11.1,26.8,5.7-18.3-20.4h.1Z"/>
    <path id="Path_720" class="st2" d="M222.4,60.3l13.7,23.7,2.9-27.2-18.4,20.3,26.8-5.6s-25-11.2-25-11.2Z"/>
    <path id="Path_721" class="st2" d="M200,99l22.1,16.1-8.4-26.1-8.5,26,22.2-16.1h-27.4Z"/>
    <path id="Path_716" class="st2" d="M345.9,34.3l-2.9,27.2-13.7-23.7,25,11.2-26.8,5.6,18.4-20.3Z"/>
    <path id="Path_717" class="st2" d="M382,60.6l-13.7,23.7-2.8-27.2,18.3,20.4-26.8-5.7,25-11.1h0Z"/>
    <path id="Path_718" class="st2" d="M404.3,99.3l-22.2,16.1,8.5-26,8.4,26.1-22.1-16.1h27.4Z"/>
  </g>
</svg>